<?xml version="1.0" standalone="no"?>
<svg 
width="600mm" height="400mm" viewBox="0 0 600 400" preserveAspectRatio="xMinYMin meet"
  xmlns="http://www.w3.org/2000/svg">

  <desc> 

  CadsolOnLine  2024-02-10
  
  </desc>

  <rect x="0" y="0" width="600" height="400" 
   fill="rgb(250,250,250)" stroke="black" stroke-width="1px" />
 
  

			<line x1="329.218" y1="44.852" x2="300.000" y2="100.000"
			stroke="black" stroke-width="1.00" />
			
			<line x1="297.000" y1="103.000" x2="303.000" y2="97.000"
			stroke="black" stroke-width="1.00" />
			
			<line x1="297.000" y1="97.000" x2="303.000" y2="103.000"
			stroke="black" stroke-width="1.00" />
			<text x="81.18" y="164.02" font-size="10" font-family="Courier New" stroke="rgb(200,0,0)" textLength="5.00"> 6</text>
           <text x="178.19" y="165.66" font-size="10" font-family="Courier New" stroke="rgb(200,0,0)" textLength="5.00"> 7</text>
           <text x="221.04" y="171.30" font-size="10" font-family="Courier New" stroke="rgb(200,0,0)" textLength="5.00"> 8</text>
           <text x="248.41" y="180.03" font-size="10" font-family="Courier New" stroke="rgb(200,0,0)" textLength="5.00"> 9</text>
           <text x="270.94" y="193.20" font-size="10" font-family="Courier New" stroke="rgb(200,0,0)" textLength="10.00"> 10</text>
           <text x="294.73" y="214.86" font-size="10" font-family="Courier New" stroke="rgb(200,0,0)" textLength="10.00"> 11</text>
           <text x="329.22" y="257.71" font-size="10" font-family="Courier New" stroke="rgb(200,0,0)" textLength="10.00"> 12</text>
           <text x="415.61" y="387.75" font-size="10" font-family="Courier New" stroke="rgb(200,0,0)" textLength="10.00"> 13</text>
           <text x="547.05" y="390.03" font-size="10" font-family="Courier New" stroke="rgb(200,0,0)" textLength="10.00"> 14</text>
           <text x="577.04" y="221.25" font-size="10" font-family="Courier New" stroke="rgb(200,0,0)" textLength="10.00"> 15</text>
            
				          <polyline fill="none" stroke="rgb(200,0,0)" stroke-width="0.66"
				           points= " 213.074,100.654   207.842,103.168   202.165,105.895   196.010,108.853   189.346,112.054   182.150,115.512   174.405,119.233   166.113,123.217   157.298,127.452   148.022,131.909   138.390,136.537   128.567,141.256   118.789,145.954   109.362,150.483   100.660,154.664   93.101,158.296   87.110,161.174   83.705,162.810   83.068,163.116   82.520,163.379   82.063,163.599   81.698,163.774   81.427,163.904   81.250,163.989   81.168,164.029   81.180,164.023   " /> 
				          <polyline fill="none" stroke="rgb(200,0,0)" stroke-width="0.66"
				           points= " 259.490,100.629   257.774,102.001   255.902,103.499   253.872,105.123   251.681,106.876   249.324,108.761   246.795,110.783   244.090,112.948   241.200,115.259   238.119,117.723   234.843,120.345   231.365,123.126   227.687,126.068   223.811,129.169   219.747,132.420   215.515,135.805   211.147,139.299   206.686,142.867   202.198,146.458   197.763,150.005   193.485,153.427   189.484,156.627   185.894,159.500   182.852,161.933   180.490,163.822   179.167,164.881   178.920,165.078   178.709,165.247   178.533,165.387   178.393,165.500   178.289,165.583   178.221,165.637   178.189,165.663   178.194,165.659   " /> 
				          <polyline fill="none" stroke="rgb(200,0,0)" stroke-width="0.66"
				           points= " 279.347,103.141   279.339,103.151   279.326,103.166   279.307,103.187   279.284,103.215   279.256,103.248   279.222,103.287   279.092,103.439   279.080,103.453   278.757,103.830   278.312,104.351   277.746,105.012   277.063,105.811   276.264,106.744   275.354,107.808   274.335,108.999   273.209,110.316   271.977,111.756   270.640,113.318   269.199,115.002   267.653,116.809   266.002,118.739   264.243,120.795   262.375,122.978   260.396,125.291   258.305,127.736   256.100,130.312   253.784,133.019   251.359,135.854   248.830,138.809   246.209,141.873   243.512,145.026   240.760,148.242   237.985,151.485   235.226,154.709   232.535,157.856   229.969,160.855   227.595,163.628   225.488,166.092   223.718,168.161   222.353,169.755   221.593,170.645   221.451,170.810   221.330,170.951   221.229,171.069   221.149,171.163   221.089,171.233   221.051,171.278   221.032,171.299   221.035,171.296   " /> 
				          <polyline fill="none" stroke="rgb(200,0,0)" stroke-width="0.66"
				           points= " 290.173,110.162   290.167,110.172   290.157,110.189   290.143,110.212   290.126,110.241   290.105,110.277   290.080,110.319   289.982,110.482   289.973,110.498   289.731,110.902   289.397,111.461   288.973,112.170   288.461,113.025   287.865,114.023   287.186,115.159   286.426,116.430   285.588,117.832   284.674,119.361   283.683,121.018   282.618,122.800   281.478,124.706   280.264,126.738   278.974,128.896   277.608,131.181   276.165,133.594   274.646,136.135   273.050,138.804   271.379,141.599   269.636,144.515   267.826,147.542   265.958,150.667   264.043,153.870   262.099,157.123   260.146,160.389   258.214,163.620   256.337,166.761   254.555,169.742   252.913,172.488   251.460,174.918   250.243,176.953   249.308,178.518   248.787,179.388   248.691,179.550   248.608,179.689   248.539,179.804   248.484,179.896   248.443,179.964   248.417,180.008   248.404,180.029   248.406,180.026   " /> 
				          <polyline fill="none" stroke="rgb(200,0,0)" stroke-width="0.66"
				           points= " 301.347,115.797   301.342,115.809   301.335,115.827   301.325,115.852   301.313,115.884   301.297,115.923   301.279,115.969   301.209,116.148   301.202,116.165   301.028,116.609   300.787,117.222   300.482,118.000   300.113,118.938   299.683,120.034   299.192,121.281   298.644,122.677   298.039,124.217   297.378,125.899   296.663,127.721   295.893,129.681   295.068,131.780   294.189,134.018   293.254,136.397   292.264,138.917   291.218,141.580   290.115,144.387   288.956,147.338   287.741,150.430   286.473,153.658   285.155,157.012   283.794,160.478   282.397,164.034   280.977,167.649   279.550,171.281   278.136,174.879   276.762,178.378   275.456,181.703   274.251,184.769   273.184,187.485   272.291,189.759   271.604,191.509   271.221,192.483   271.150,192.664   271.089,192.819   271.038,192.948   270.998,193.051   270.968,193.127   270.948,193.177   270.939,193.200   270.940,193.197   " /> 
				          <polyline fill="none" stroke="rgb(200,0,0)" stroke-width="0.66"
				           points= " 313.872,120.507   313.869,120.520   313.865,120.540   313.859,120.569   313.852,120.605   313.843,120.649   313.832,120.702   313.791,120.905   313.787,120.924   313.685,121.428   313.544,122.125   313.364,123.010   313.147,124.080   312.893,125.331   312.604,126.758   312.279,128.359   311.920,130.130   311.526,132.070   311.099,134.178   310.637,136.454   310.141,138.900   309.610,141.518   309.043,144.313   308.440,147.287   307.799,150.445   307.121,153.790   306.404,157.326   305.648,161.051   304.854,164.963   304.025,169.053   303.162,173.306   302.271,177.698   301.360,182.192   300.437,186.740   299.517,191.276   298.616,195.717   297.755,199.964   296.956,203.904   296.244,207.413   295.645,210.367   295.182,212.648   294.924,213.921   294.876,214.158   294.835,214.361   294.800,214.530   294.773,214.665   294.753,214.765   294.739,214.830   294.733,214.860   294.734,214.855   " /> 
				          <polyline fill="none" stroke="rgb(200,0,0)" stroke-width="0.66"
				           points= " 329.218,124.541   329.218,124.557   329.218,124.581   329.218,124.615   329.218,124.658   329.218,124.711   329.218,124.773   329.218,125.014   329.218,125.037   329.218,125.637   329.218,126.468   329.218,127.526   329.218,128.810   329.218,130.316   329.218,132.043   329.218,133.990   329.218,136.156   329.218,138.544   329.218,141.156   329.218,143.999   329.218,147.079   329.218,150.405   329.218,153.988   329.218,157.841   329.218,161.976   329.218,166.407   329.218,171.148   329.218,176.208   329.218,181.596   329.218,187.313   329.218,193.348   329.218,199.681   329.218,206.270   329.218,213.052   329.218,219.932   329.218,226.786   329.218,233.451   329.218,239.733   329.218,245.410   329.218,250.249   329.218,254.026   329.218,256.149   329.218,256.545   329.218,256.885   329.218,257.168   329.218,257.393   329.218,257.561   329.218,257.670   329.218,257.721   329.218,257.713   " /> 
				          <polyline fill="none" stroke="rgb(200,0,0)" stroke-width="0.66"
				           points= " 350.164,127.992   350.169,128.011   350.177,128.042   350.188,128.084   350.201,128.139   350.218,128.205   350.238,128.284   350.315,128.590   350.322,128.619   350.514,129.380   350.781,130.437   351.122,131.792   351.538,133.445   352.031,135.400   352.600,137.660   353.249,140.233   353.978,143.129   354.792,146.361   355.696,149.946   356.693,153.906   357.792,158.268   359.001,163.065   360.329,168.334   361.787,174.122   363.389,180.480   365.149,187.468   367.084,195.149   369.213,203.596   371.552,212.882   374.122,223.081   376.938,234.259   380.014,246.467   383.354,259.723   386.950,273.996   390.775,289.178   394.774,305.053   398.860,321.267   402.899,337.302   406.720,352.468   410.113,365.935   412.853,376.807   414.430,383.068   414.727,384.247   414.983,385.262   415.196,386.109   415.367,386.786   415.494,387.290   415.577,387.619   415.615,387.772   415.609,387.749   " /> 
				          <polyline fill="none" stroke="rgb(200,0,0)" stroke-width="0.66"
				           points= " 383.402,130.712   383.419,130.739   383.446,130.781   383.483,130.841   383.531,130.916   383.589,131.008   383.657,131.117   383.925,131.541   383.951,131.582   384.620,132.643   385.558,134.128   386.771,136.050   388.269,138.425   390.068,141.275   392.186,144.631   394.646,148.530   397.481,153.022   400.730,158.170   404.445,164.056   408.689,170.781   413.545,178.476   419.117,187.306   425.540,197.483   432.986,209.282   441.681,223.061   451.923,239.290   464.111,258.602   478.786,281.856   496.704,310.249   518.937,345.479   547.053,390.032   " /> 
				          <polyline fill="none" stroke="rgb(200,0,0)" stroke-width="0.66"
				           points= " 451.355,131.789   451.415,131.832   451.512,131.901   451.646,131.996   451.818,132.119   452.027,132.268   452.274,132.443   453.245,133.134   453.338,133.201   455.791,134.947   459.287,137.435   463.921,140.734   469.827,144.938   477.192,150.180   486.274,156.644   497.431,164.586   511.167,174.364   528.208,186.493   549.620,201.734   577.038,221.250   " /><text x="29.94" y="147.70" font-size="10" font-family="Courier New" stroke="rgb(0,150,200)" textLength="5.00"> 1</text>
           <text x="130.03" y="163.91" font-size="10" font-family="Courier New" stroke="rgb(0,150,200)" textLength="5.00"> 2</text>
           <text x="197.28" y="167.42" font-size="10" font-family="Courier New" stroke="rgb(0,150,200)" textLength="5.00"> 3</text>
           <text x="232.32" y="174.17" font-size="10" font-family="Courier New" stroke="rgb(0,150,200)" textLength="5.00"> 4</text>
           <text x="257.07" y="184.30" font-size="10" font-family="Courier New" stroke="rgb(0,150,200)" textLength="5.00"> 5</text>
           <text x="279.36" y="199.94" font-size="10" font-family="Courier New" stroke="rgb(0,150,200)" textLength="5.00"> 6</text>
           <text x="305.54" y="227.11" font-size="10" font-family="Courier New" stroke="rgb(0,150,200)" textLength="5.00"> 7</text>
           <text x="350.05" y="287.36" font-size="10" font-family="Courier New" stroke="rgb(0,150,200)" textLength="5.00"> 8</text>
            
				          <polyline fill="none" stroke="rgb(0,150,200)" stroke-width="0.66"
				           points= " 286.124,107.727   286.105,107.730   286.076,107.735   286.036,107.741   285.984,107.749   285.921,107.759   285.847,107.770   285.557,107.816   285.530,107.820   284.814,107.932   283.828,108.085   282.577,108.281   281.068,108.516   279.305,108.791   277.292,109.105   275.026,109.459   272.504,109.852   269.715,110.287   266.644,110.767   263.268,111.293   259.557,111.872   255.474,112.510   250.968,113.213   245.978,113.991   240.428,114.857   234.223,115.825   227.246,116.914   219.354,118.145   210.368,119.547   200.070,121.154   188.195,123.007   174.422,125.156   158.371,127.660   139.613,130.587   117.691,134.008   92.192,137.986   62.879,142.560   29.937,147.700   " /> 
				          <polyline fill="none" stroke="rgb(0,150,200)" stroke-width="0.66"
				           points= " 297.060,113.813   297.043,113.818   297.016,113.826   296.978,113.837   296.930,113.852   296.871,113.869   296.803,113.890   296.535,113.970   296.509,113.978   295.849,114.176   294.943,114.448   293.802,114.790   292.437,115.200   290.858,115.673   289.074,116.208   287.093,116.802   284.917,117.455   282.549,118.165   279.985,118.934   277.218,119.764   274.238,120.658   271.030,121.620   267.573,122.657   263.843,123.776   259.812,124.985   255.444,126.295   250.700,127.718   245.535,129.267   239.900,130.957   233.743,132.804   227.011,134.823   219.659,137.029   211.651,139.430   202.978,142.032   193.671,144.823   183.829,147.776   173.638,150.832   163.404,153.902   153.569,156.852   144.697,159.513   137.434,161.691   133.208,162.959   132.409,163.198   131.720,163.405   131.145,163.578   130.684,163.716   130.341,163.819   130.117,163.886   130.012,163.917   130.028,163.912   " /> 
				          <polyline fill="none" stroke="rgb(0,150,200)" stroke-width="0.66"
				           points= " 308.942,118.831   308.926,118.838   308.899,118.850   308.862,118.866   308.814,118.887   308.756,118.912   308.688,118.941   308.424,119.057   308.399,119.068   307.748,119.351   306.860,119.737   305.748,120.221   304.427,120.796   302.912,121.455   301.217,122.193   299.353,123.004   297.331,123.884   295.158,124.830   292.836,125.840   290.367,126.914   287.748,128.054   284.976,129.260   282.042,130.537   278.936,131.888   275.647,133.320   272.160,134.837   268.460,136.447   264.532,138.156   260.361,139.971   255.934,141.898   251.244,143.939   246.290,146.094   241.087,148.359   235.663,150.719   230.076,153.150   224.413,155.615   218.798,158.058   213.399,160.407   208.423,162.573   204.101,164.453   200.676,165.944   198.728,166.792   198.363,166.950   198.050,167.087   197.788,167.201   197.580,167.291   197.425,167.359   197.323,167.403   197.276,167.423   197.283,167.420   " /> 
				          <polyline fill="none" stroke="rgb(0,150,200)" stroke-width="0.66"
				           points= " 323.004,123.099   322.986,123.109   322.958,123.125   322.918,123.147   322.868,123.176   322.807,123.210   322.735,123.250   322.456,123.408   322.429,123.423   321.744,123.809   320.813,124.333   319.653,124.986   318.284,125.757   316.725,126.635   314.996,127.609   313.114,128.669   311.092,129.808   308.942,131.018   306.672,132.296   304.289,133.639   301.795,135.043   299.190,136.510   296.473,138.041   293.641,139.636   290.688,141.298   287.611,143.031   284.404,144.837   281.061,146.720   277.581,148.680   273.962,150.718   270.210,152.831   266.337,155.012   262.362,157.251   258.319,159.527   254.257,161.815   250.242,164.077   246.359,166.263   242.713,168.316   239.428,170.167   236.631,171.742   234.450,172.970   233.223,173.661   232.995,173.789   232.798,173.900   232.635,173.992   232.505,174.065   232.408,174.120   232.345,174.155   232.315,174.172   232.320,174.169   " /> 
				          <polyline fill="none" stroke="rgb(0,150,200)" stroke-width="0.66"
				           points= " 341.374,126.769   341.354,126.783   341.321,126.805   341.276,126.836   341.219,126.875   341.149,126.923   341.066,126.979   340.747,127.197   340.717,127.218   339.935,127.751   338.877,128.473   337.566,129.368   336.029,130.417   334.292,131.602   332.381,132.906   330.319,134.314   328.126,135.810   325.819,137.385   323.409,139.029   320.908,140.736   318.321,142.502   315.653,144.323   312.905,146.198   310.079,148.127   307.174,150.109   304.188,152.147   301.122,154.239   297.976,156.387   294.750,158.588   291.452,160.839   288.089,163.134   284.675,165.464   281.234,167.812   277.796,170.158   274.403,172.474   271.107,174.724   267.973,176.862   265.079,178.837   262.509,180.591   260.348,182.066   258.682,183.203   257.751,183.838   257.578,183.956   257.430,184.058   257.306,184.142   257.208,184.209   257.135,184.259   257.087,184.291   257.065,184.306   257.069,184.304   " /> 
				          <polyline fill="none" stroke="rgb(0,150,200)" stroke-width="0.66"
				           points= " 368.721,129.806   368.695,129.826   368.654,129.859   368.596,129.904   368.522,129.962   368.433,130.032   368.328,130.115   367.920,130.435   367.881,130.465   366.885,131.247   365.543,132.300   363.891,133.597   361.966,135.108   359.809,136.801   357.457,138.647   354.943,140.621   352.296,142.698   349.541,144.861   346.696,147.094   343.776,149.385   340.793,151.727   337.753,154.113   334.663,156.539   331.524,159.002   328.339,161.502   325.111,164.036   321.840,166.604   318.529,169.202   315.184,171.828   311.811,174.475   308.423,177.135   305.034,179.794   301.668,182.436   298.355,185.037   295.131,187.567   292.045,189.990   289.150,192.262   286.509,194.335   284.190,196.155   282.261,197.669   280.783,198.829   279.963,199.473   279.811,199.592   279.681,199.695   279.572,199.780   279.486,199.848   279.422,199.898   279.380,199.931   279.360,199.946   279.363,199.944   " /> 
				          <polyline fill="none" stroke="rgb(0,150,200)" stroke-width="0.66"
				           points= " 418.577,131.723   418.537,131.757   418.472,131.811   418.383,131.887   418.269,131.983   418.131,132.099   417.968,132.236   417.339,132.768   417.279,132.818   415.748,134.110   413.698,135.840   411.190,137.956   408.296,140.398   405.085,143.108   401.621,146.031   397.962,149.118   394.159,152.328   390.250,155.626   386.268,158.986   382.237,162.387   378.174,165.815   374.093,169.259   370.002,172.712   365.906,176.168   361.810,179.624   357.718,183.077   353.632,186.525   349.557,189.963   345.500,193.387   341.470,196.787   337.481,200.154   333.549,203.471   329.701,206.718   325.966,209.870   322.383,212.894   318.997,215.751   315.861,218.396   313.034,220.782   310.576,222.856   308.549,224.567   307.008,225.867   306.156,226.586   305.999,226.719   305.864,226.833   305.751,226.927   305.662,227.003   305.596,227.059   305.552,227.095   305.532,227.112   305.535,227.110   " /> 
				          <polyline fill="none" stroke="rgb(0,150,200)" stroke-width="0.66"
				           points= " 555.892,129.583   555.793,129.659   555.634,129.781   555.414,129.949   555.134,130.164   554.795,130.424   554.397,130.730   552.856,131.910   552.710,132.022   548.991,134.873   544.063,138.650   538.122,143.203   531.376,148.374   524.025,154.008   516.254,159.965   508.217,166.125   500.041,172.391   491.825,178.689   483.641,184.962   475.541,191.170   467.561,197.286   459.722,203.294   452.038,209.184   444.513,214.952   437.152,220.594   429.953,226.111   422.918,231.503   416.049,236.768   409.351,241.902   402.832,246.899   396.507,251.747   390.397,256.430   384.527,260.929   378.936,265.215   373.665,269.254   368.768,273.008   364.301,276.431   360.331,279.475   356.922,282.088   354.139,284.221   352.040,285.829   350.887,286.713   350.674,286.876   350.492,287.016   350.341,287.132   350.220,287.224   350.131,287.293   350.072,287.337   350.045,287.358   350.049,287.355   " /><text x="158.19" y="105.95" font-size="10" font-family="Courier New" stroke="rgb(0,150,100)" textLength="10.00"> 11</text>
           <text x="214.43" y="100.02" font-size="10" font-family="Courier New" stroke="rgb(0,150,100)" textLength="10.00"> 12</text>
           <text x="242.69" y="100.21" font-size="10" font-family="Courier New" stroke="rgb(0,150,100)" textLength="10.00"> 13</text>
           <text x="260.30" y="100.84" font-size="10" font-family="Courier New" stroke="rgb(0,150,100)" textLength="10.00"> 14</text>
           <text x="272.76" y="101.20" font-size="10" font-family="Courier New" stroke="rgb(0,150,100)" textLength="10.00"> 15</text>
           <text x="283.42" y="105.98" font-size="10" font-family="Courier New" stroke="rgb(0,150,100)" textLength="10.00"> 16</text>
           <text x="294.27" y="112.41" font-size="10" font-family="Courier New" stroke="rgb(0,150,100)" textLength="10.00"> 17</text>
           <text x="305.82" y="117.65" font-size="10" font-family="Courier New" stroke="rgb(0,150,100)" textLength="10.00"> 18</text>
           <text x="319.19" y="122.09" font-size="10" font-family="Courier New" stroke="rgb(0,150,100)" textLength="10.00"> 19</text>
           <text x="336.19" y="125.90" font-size="10" font-family="Courier New" stroke="rgb(0,150,100)" textLength="10.00"> 20</text>
           <text x="360.57" y="129.12" font-size="10" font-family="Courier New" stroke="rgb(0,150,100)" textLength="10.00"> 21</text>
           <text x="402.36" y="131.42" font-size="10" font-family="Courier New" stroke="rgb(0,150,100)" textLength="10.00"> 22</text>
           <text x="502.20" y="131.02" font-size="10" font-family="Courier New" stroke="rgb(0,150,100)" textLength="10.00"> 23</text>
            
				          <polyline fill="none" stroke="rgb(0,150,100)" stroke-width="0.66"
				           points= " 152.759,164.395   152.763,164.356   152.770,164.283   152.780,164.175   152.793,164.033   152.809,163.858   152.829,163.648   152.877,163.129   153.050,161.263   153.295,158.628   153.605,155.292   153.973,151.333   154.391,146.832   154.852,141.869   155.349,136.518   155.876,130.846   156.427,124.911   156.999,118.760   157.586,112.432   158.188,105.955   " /> 
				          <polyline fill="none" stroke="rgb(0,150,100)" stroke-width="0.66"
				           points= " 207.762,168.840   207.765,168.807   207.771,168.745   207.780,168.655   207.791,168.536   207.806,168.389   207.823,168.213   207.865,167.778   208.016,166.220   208.228,164.034   208.494,161.290   208.807,158.065   209.158,154.440   209.540,150.495   209.947,146.300   210.372,141.919   210.809,137.404   211.256,132.800   211.708,128.139   212.162,123.448   212.618,118.744   213.074,114.043   213.529,109.352   213.982,104.678   214.433,100.024   " /> 
				          <polyline fill="none" stroke="rgb(0,150,100)" stroke-width="0.66"
				           points= " 239.101,176.348   239.102,176.315   239.105,176.254   239.110,176.164   239.115,176.045   239.122,175.899   239.130,175.724   239.151,175.292   239.224,173.747   239.325,171.594   239.452,168.912   239.599,165.790   239.762,162.320   239.938,158.588   240.123,154.670   240.313,150.632   240.507,146.529   240.701,142.402   240.895,138.284   241.088,134.197   241.278,130.158   241.466,126.177   241.651,122.260   241.832,118.410   242.011,114.629   242.185,110.918   242.357,107.278   242.525,103.709   242.690,100.214   " /> 
				          <polyline fill="none" stroke="rgb(0,150,100)" stroke-width="0.66"
				           points= " 262.671,187.575   262.670,187.537   262.668,187.467   262.665,187.364   262.662,187.229   262.657,187.061   262.652,186.861   262.638,186.368   262.590,184.614   262.524,182.186   262.442,179.191   262.347,175.743   262.244,171.959   262.134,167.945   262.021,163.794   261.905,159.580   261.790,155.362   261.676,151.186   261.564,147.081   261.454,143.069   261.347,139.162   261.243,135.367   261.142,131.686   261.045,128.118   260.950,124.661   260.859,121.313   260.770,118.070   260.684,114.931   260.601,111.895   260.521,108.963   260.444,106.139   260.370,103.429   260.299,100.843   " /> 
				          <polyline fill="none" stroke="rgb(0,150,100)" stroke-width="0.66"
				           points= " 285.259,205.279   285.253,205.229   285.241,205.136   285.225,204.999   285.203,204.819   285.177,204.596   285.145,204.332   285.066,203.679   284.789,201.371   284.409,198.207   283.947,194.356   283.423,189.993   282.858,185.288   282.269,180.389   281.673,175.419   281.079,170.472   280.496,165.618   279.929,160.902   279.383,156.355   278.859,151.991   278.358,147.817   277.879,143.830   277.422,140.027   276.986,136.398   276.571,132.936   276.174,129.631   275.795,126.475   275.433,123.461   275.087,120.584   274.758,117.839   274.444,115.227   274.146,112.750   273.866,110.411   273.602,108.220   273.358,106.187   273.135,104.327   272.934,102.657   272.759,101.195   " /> 
				          <polyline fill="none" stroke="rgb(0,150,100)" stroke-width="0.66"
				           points= " 313.934,237.460   313.915,237.378   313.879,237.224   313.827,236.999   313.758,236.703   313.673,236.337   313.572,235.903   313.325,234.836   312.457,231.096   311.288,226.061   309.897,220.065   308.361,213.446   306.750,206.504   305.121,199.485   303.517,192.572   301.966,185.891   300.488,179.519   299.091,173.498   297.778,167.842   296.549,162.548   295.402,157.602   294.330,152.983   293.328,148.668   292.392,144.633   291.515,140.854   290.693,137.311   289.921,133.983   289.195,130.856   288.513,127.915   287.871,125.150   287.269,122.554   286.704,120.123   286.178,117.856   285.691,115.755   285.243,113.827   284.837,112.078   284.476,110.522   284.163,109.171   283.900,108.039   283.692,107.142   283.541,106.491   283.479,106.224   283.463,106.156   283.450,106.098   283.439,106.051   283.430,106.015   283.424,105.989   283.421,105.974   283.420,105.970   283.421,105.977   " /> 
				          <polyline fill="none" stroke="rgb(0,150,100)" stroke-width="0.66"
				           points= " 369.538,316.411   369.462,316.205   369.320,315.819   369.111,315.254   368.838,314.515   368.502,313.604   368.105,312.526   367.134,309.896   363.808,300.880   359.506,289.220   354.629,276.002   349.533,262.188   344.486,248.511   339.669,235.453   335.182,223.291   331.068,212.142   327.335,202.023   323.966,192.891   320.932,184.668   318.201,177.265   315.738,170.592   313.513,164.560   311.496,159.093   309.661,154.121   307.987,149.582   306.454,145.426   305.045,141.609   303.748,138.093   302.552,134.850   301.446,131.854   300.426,129.088   299.484,126.536   298.619,124.190   297.827,122.045   297.109,120.100   296.466,118.355   295.899,116.818   295.410,115.494   295.004,114.393   294.684,113.525   294.453,112.899   294.358,112.643   294.334,112.577   294.314,112.522   294.297,112.477   294.284,112.442   294.275,112.418   294.270,112.404   294.269,112.400   294.271,112.406   " /> 
				          <polyline fill="none" stroke="rgb(0,150,100)" stroke-width="0.66"
				           points= " 449.634,382.924   425.162,337.785   405.725,301.932   390.186,273.270   377.642,250.131   367.401,231.242   358.942,215.640   351.875,202.605   345.905,191.592   340.807,182.190   336.412,174.083   332.588,167.030   329.234,160.842   326.269,155.374   323.632,150.510   321.273,146.158   319.153,142.248   317.241,138.722   315.514,135.537   313.953,132.657   312.544,130.058   311.277,127.720   310.144,125.631   309.143,123.784   308.270,122.174   307.527,120.803   306.914,119.673   306.434,118.787   306.089,118.152   305.949,117.893   305.913,117.827   305.883,117.771   305.858,117.726   305.839,117.691   305.826,117.666   305.818,117.652   305.816,117.648   305.819,117.654   " /> 
				          <polyline fill="none" stroke="rgb(0,150,100)" stroke-width="0.66"
				           points= " 505.112,362.576   460.350,304.678   430.429,265.977   409.093,238.380   393.150,217.759   380.806,201.792   370.977,189.079   362.972,178.724   356.330,170.133   350.734,162.895   345.959,156.719   341.842,151.394   338.264,146.766   335.134,142.718   332.385,139.162   329.967,136.034   327.841,133.285   325.980,130.878   324.363,128.786   322.976,126.992   321.810,125.484   320.860,124.255   320.122,123.301   319.596,122.620   319.382,122.344   319.328,122.274   319.282,122.214   319.245,122.166   319.216,122.129   319.196,122.102   319.184,122.087   319.181,122.083   319.186,122.090   " /> 
				          <polyline fill="none" stroke="rgb(0,150,100)" stroke-width="0.66"
				           points= " 591.548,356.925   514.854,287.541   469.369,246.391   439.285,219.175   417.925,199.851   401.984,185.430   389.643,174.265   379.819,165.377   371.828,158.148   365.221,152.171   359.690,147.167   355.021,142.943   351.060,139.360   347.697,136.317   344.851,133.743   342.465,131.584   340.496,129.803   338.916,128.374   337.705,127.278   336.849,126.504   336.503,126.190   336.415,126.111   336.341,126.044   336.281,125.990   336.234,125.948   336.202,125.918   336.183,125.901   336.177,125.896   336.186,125.904   " /> 
				          <polyline fill="none" stroke="rgb(0,150,100)" stroke-width="0.66"
				           points= " 573.132,258.683   510.776,220.675   471.655,196.830   444.871,180.503   425.437,168.657   410.752,159.706   399.332,152.745   390.271,147.222   382.990,142.784   377.102,139.196   372.347,136.297   368.544,133.979   365.565,132.163   363.325,130.798   361.765,129.847   361.139,129.465   360.981,129.369   360.848,129.288   360.739,129.222   360.656,129.171   360.597,129.135   360.563,129.114   360.553,129.108   360.569,129.118   " /> 
				          <polyline fill="none" stroke="rgb(0,150,100)" stroke-width="0.66"
				           points= " 567.587,192.973   516.807,174.055   483.415,161.614   460.034,152.904   443.005,146.560   430.315,141.832   420.778,138.279   413.661,135.627   408.499,133.704   404.996,132.399   403.611,131.883   403.263,131.753   402.970,131.644   402.733,131.556   402.550,131.488   402.421,131.440   402.346,131.412   402.326,131.404   402.359,131.417   " /> 
				          <polyline fill="none" stroke="rgb(0,150,100)" stroke-width="0.66"
				           points= " 573.953,143.468   543.648,138.210   523.800,134.766   511.229,132.584   506.444,131.754   505.257,131.548   504.265,131.376   503.462,131.237   502.846,131.130   502.413,131.055   502.162,131.011   502.093,130.999   502.204,131.019   " /> 
				          <polyline fill="none" stroke="rgb(152,0,0)" stroke-width="0.66"
				           points= " 222.676,104.366   229.871,108.178   236.257,111.561   242.011,114.610   247.266,117.394   252.122,119.967   256.662,122.372   260.950,124.644   265.041,126.811   268.982,128.899   272.812,130.929   276.569,132.919   280.284,134.887   283.992,136.852   287.723,138.828   291.511,140.835   295.389,142.890   299.397,145.013   303.577,147.228   307.979,149.560   312.662,152.041   317.698,154.709   323.178,157.613   329.218,160.812   335.967,164.388   343.630,168.448   352.486,173.140   362.934,178.676   375.565,185.367   391.292,193.700   411.612,204.465   439.155,219.058   479.023,240.180   542.571,273.848   " /> 
				          <polyline fill="none" stroke="rgb(152,0,0)" stroke-width="0.66"
				           points= " 30.452,165.049   81.142,164.041   116.220,163.833   142.100,164.124   162.118,164.764   178.179,165.670   191.454,166.797   202.701,168.117   212.437,169.621   221.027,171.306   228.737,173.176   235.769,175.241   242.281,177.520   248.401,180.036   254.235,182.817   259.878,185.905   265.417,189.347   270.936,193.207   276.523,197.567   282.273,202.530   288.297,208.236   294.731,214.869   301.750,222.686   309.589,232.044   318.580,243.465   329.218,257.737   342.276,276.108   359.050,300.682   381.898,335.303   415.627,387.820   " /> 
				          <polyline fill="none" stroke="rgb(152,0,0)" stroke-width="0.66"
				           points= " 276.591,101.079   279.351,103.136   282.074,105.058   284.777,106.861   287.473,108.556   290.176,110.157   292.901,111.673   295.662,113.113   298.472,114.484   301.349,115.792   304.308,117.043   307.368,118.243   310.548,119.394   313.873,120.501   317.369,121.566   321.066,122.592   325.001,123.581   329.218,124.534   333.769,125.451   338.719,126.333   344.149,127.177   350.162,127.982   356.888,128.744   364.501,129.458   373.231,130.114   383.394,130.699   395.438,131.196   410.015,131.574   428.116,131.789   451.325,131.768   482.339,131.385   526.162,130.403   593.230,128.328   " /> 
				          <polyline fill="none" stroke="rgb(152,0,0)" stroke-width="0.66"
				           points= " 134.778,107.752   157.894,113.777   175.738,118.592   190.033,122.601   201.832,126.050   211.814,129.102   220.439,131.866   228.029,134.421   234.818,136.826   240.982,139.124   246.653,141.354   251.939,143.544   256.925,145.722   261.683,147.913   266.274,150.139   270.754,152.424   275.172,154.793   279.579,157.272   284.024,159.892   288.558,162.687   293.239,165.699   298.130,168.977   303.308,172.584   308.868,176.600   314.928,181.128   321.641,186.305   329.218,192.318   337.946,199.431   348.245,208.025   360.746,218.682   376.450,232.320   397.048,250.500   425.652,276.092   468.681,315.020   541.856,381.796   " /> 
				          <polyline fill="none" stroke="rgb(152,0,0)" stroke-width="0.66"
				           points= " 252.276,100.066   256.444,103.065   260.357,105.806   264.065,108.331   267.610,110.675   271.026,112.867   274.345,114.930   277.592,116.886   280.793,118.750   283.969,120.540   287.143,122.267   290.337,123.945   293.571,125.584   296.869,127.195   300.255,128.788   303.756,130.374   307.400,131.964   311.222,133.568   315.263,135.199   319.569,136.870   324.197,138.597   329.218,140.399   334.720,142.298   340.817,144.322   347.655,146.508   355.433,148.902   364.416,151.568   374.985,154.597   387.686,158.117   403.351,162.322   423.299,167.523   449.767,174.240   486.866,183.432   543.080,197.079   " /> 
				          <polyline fill="none" stroke="rgb(152,0,0)" stroke-width="0.66"
				           points= " 31.527,141.153   83.191,143.831   118.558,146.065   144.456,148.060   164.375,149.926   180.285,151.728   193.386,153.506   204.450,155.293   213.998,157.111   222.396,158.982   229.909,160.924   236.738,162.957   243.037,165.101   248.928,167.377   254.514,169.810   259.880,172.430   265.106,175.269   270.264,178.369   275.425,181.780   280.665,185.564   286.063,189.799   291.715,194.588   297.735,200.063   304.265,206.401   311.497,213.849   319.690,222.749   329.218,233.607   340.643,247.185   354.855,264.706   373.364,288.247   398.957,321.655   437.433,372.942   " /> 
				          <polyline fill="none" stroke="rgb(152,0,0)" stroke-width="0.66"
				           points= " 271.289,101.292   274.283,103.545   277.207,105.643   280.080,107.606   282.920,109.451   285.745,111.194   288.569,112.845   291.410,114.416   294.283,115.917   297.204,117.356   300.191,118.740   303.261,120.077   306.436,121.371   309.738,122.628   313.193,123.854   316.830,125.054   320.684,126.231   324.797,127.391   329.218,128.538   334.007,129.677   339.241,130.813   345.015,131.950   351.450,133.095   358.706,134.255   366.995,135.437   376.607,136.654   387.950,137.919   401.616,139.251   418.499,140.680   440.015,142.248   468.552,144.030   508.478,146.156   568.731,148.895   " />
			<line x1="297.000" y1="103.000" x2="303.000" y2="97.000"
			stroke="black" stroke-width="1.00" />
			
			<line x1="297.000" y1="97.000" x2="303.000" y2="103.000"
			stroke="black" stroke-width="1.00" />
			<text x="20" y="380" font-size="10" font-family='Courier New'  stroke="black" > Carpe diem</text>
				</svg>